<?xml version="1.0" encoding="UTF-8"?>
<svg id="Layer_1" xmlns="http://www.w3.org/2000/svg" version="1.1" viewBox="0 0 1000 254.4">
  <!-- Generator: Adobe Illustrator 30.3.0, SVG Export Plug-In . SVG Version: 2.1.3 Build 182)  -->
  <defs>
    <style>
      .st0 {
        fill: #007484;
      }
    </style>
  </defs>
  <g>
    <path class="st0" d="M375.34,85.85c2.79-2.66,6.51-3.99,11.14-3.99,2.18,0,4.36.27,6.54.82,2.18.55,4.43,1.36,6.75,2.45v-26.16c-2.59-.68-5.31-1.23-8.18-1.63-2.86-.41-5.66-.61-8.38-.61-7.9,0-14.75,1.53-20.54,4.6-5.79,3.07-10.29,7.46-13.49,13.18-3.2,5.72-4.8,12.47-4.8,20.24v5.72h-18.6v22.89h18.6v81.35h26.78v-81.35h25.55v-22.89h-25.55v-3.47c0-4.77,1.4-8.48,4.19-11.14Z"/>
    <path class="st0" d="M458.43,207.98c-10.9,0-20.54-2.42-28.92-7.26-8.38-4.84-14.92-11.45-19.62-19.83-4.7-8.38-7.05-17.81-7.05-28.31s2.35-19.93,7.05-28.31c4.7-8.38,11.24-14.99,19.62-19.83,8.38-4.84,18.02-7.26,28.92-7.26s20.51,2.45,28.82,7.36c8.31,4.91,14.82,11.52,19.52,19.83,4.7,8.31,7.05,17.72,7.05,28.21s-2.35,19.93-7.05,28.31c-4.7,8.38-11.21,14.99-19.52,19.83-8.31,4.84-17.92,7.26-28.82,7.26ZM458.43,183.04c5.18,0,9.91-1.19,14.21-3.58,4.29-2.38,7.77-5.86,10.42-10.42,2.66-4.56,3.99-10.05,3.99-16.45s-1.33-11.85-3.99-16.35c-2.66-4.5-6.13-7.97-10.42-10.42-4.29-2.45-9.03-3.68-14.21-3.68s-9.78,1.23-14.21,3.68c-4.43,2.45-7.97,5.93-10.63,10.42-2.66,4.5-3.99,9.95-3.99,16.35s1.33,11.89,3.99,16.45c2.66,4.57,6.2,8.04,10.63,10.42,4.43,2.39,9.16,3.58,14.21,3.58Z"/>
    <path class="st0" d="M591.9,207.98c-5.04,0-9.61-.75-13.69-2.25-4.09-1.5-7.6-3.44-10.53-5.83-2.93-2.38-5.28-4.94-7.05-7.67h-1.64v12.47h-25.14V58.36h26.78v40.06l-1.64,14.72h1.64c1.77-2.72,4.12-5.31,7.05-7.77,2.93-2.45,6.44-4.43,10.53-5.93,4.09-1.5,8.65-2.25,13.69-2.25,9.54,0,18.09,2.35,25.65,7.05,7.56,4.7,13.56,11.21,17.99,19.52,4.43,8.31,6.64,17.92,6.64,28.82s-2.22,20.51-6.64,28.82c-4.43,8.31-10.42,14.82-17.99,19.52-7.56,4.7-16.12,7.05-25.65,7.05ZM587.2,183.25c5.04,0,9.71-1.26,14-3.78,4.29-2.52,7.77-6.1,10.42-10.73,2.66-4.63,3.99-10.02,3.99-16.15s-1.33-11.65-3.99-16.15c-2.66-4.5-6.13-8-10.42-10.53-4.29-2.52-8.96-3.78-14-3.78s-9.51,1.26-13.8,3.78c-4.29,2.52-7.77,6.07-10.42,10.63-2.66,4.57-3.99,9.91-3.99,16.05s1.33,11.48,3.99,16.05c2.66,4.57,6.13,8.14,10.42,10.73,4.29,2.59,8.89,3.88,13.8,3.88Z"/>
    <path class="st0" d="M711.06,207.98c-10.49,0-19.86-2.39-28.11-7.15-8.25-4.77-14.72-11.31-19.42-19.62-4.7-8.31-7.05-17.78-7.05-28.41,0-9.95,2.32-19.14,6.95-27.59,4.63-8.45,10.97-15.23,19.01-20.34,8.04-5.11,17.24-7.67,27.59-7.67,11.17,0,20.57,2.39,28.21,7.15,7.63,4.77,13.42,11.14,17.37,19.11,3.95,7.97,5.93,16.8,5.93,26.47,0,2.18-.07,4.06-.2,5.62-.14,1.57-.27,2.69-.41,3.37h-61.01v-19.01h35.87c-.14-2.32-.82-4.7-2.04-7.15-1.23-2.45-2.93-4.7-5.11-6.75-2.18-2.04-4.8-3.71-7.87-5.01-3.07-1.29-6.58-1.94-10.53-1.94-5.18,0-9.91,1.36-14.21,4.09-4.29,2.73-7.67,6.51-10.12,11.34-2.45,4.84-3.68,10.6-3.68,17.27s1.29,12.85,3.88,17.68c2.59,4.84,6.1,8.52,10.53,11.04,4.43,2.52,9.37,3.78,14.82,3.78,6.4,0,11.78-1.4,16.15-4.19,4.36-2.79,7.77-6.3,10.22-10.53l21.67,10.63c-4.91,8.59-11.31,15.36-19.21,20.34-7.9,4.97-17.65,7.46-29.23,7.46Z"/>
    <path class="st0" d="M830.64,207.98c-10.63,0-20.07-2.35-28.31-7.05-8.25-4.7-14.72-11.24-19.42-19.62-4.7-8.38-7.05-17.95-7.05-28.72s2.35-20.3,7.05-28.62c4.7-8.31,11.17-14.85,19.42-19.62,8.24-4.77,17.68-7.15,28.31-7.15,11.58,0,21.53,2.45,29.84,7.36,8.31,4.91,14.31,11.99,17.99,21.26l-24.53,10.22c-2.18-4.77-5.25-8.28-9.2-10.53-3.95-2.25-8.65-3.37-14.1-3.37s-10.09,1.26-14.31,3.78c-4.23,2.52-7.56,6.03-10.02,10.53-2.45,4.5-3.68,9.88-3.68,16.15s1.23,11.69,3.68,16.25c2.45,4.57,5.79,8.11,10.02,10.63,4.22,2.52,8.99,3.78,14.31,3.78,5.99,0,10.97-1.33,14.92-3.99,3.95-2.66,7.15-6.3,9.61-10.94l23.91,10.63c-4.09,8.72-10.29,15.74-18.6,21.05-8.31,5.32-18.26,7.97-29.84,7.97Z"/>
    <path class="st0" d="M897.48,204.71V58.36h26.78v37l-1.64,18.19h1.64c3-4.77,7.32-8.69,12.98-11.75,5.65-3.07,11.89-4.6,18.7-4.6,8.59,0,15.81,1.74,21.67,5.21,5.86,3.47,10.25,8.42,13.18,14.82,2.93,6.41,4.39,13.97,4.39,22.69v64.8h-26.78v-61.52c0-4.63-.85-8.48-2.56-11.55-1.71-3.07-4.02-5.42-6.95-7.05-2.93-1.63-6.37-2.45-10.32-2.45-4.77,0-8.99,1.33-12.67,3.99-3.68,2.66-6.54,6.23-8.58,10.73-2.04,4.5-3.07,9.47-3.07,14.92v52.94h-26.78Z"/>
  </g>
  <g>
    <path class="st0" d="M53.38,192.17l.42-.73c3.26-5.65,9.21-9.11,15.72-9.51,8.81-.54,17.15-5.65,21.36-14.35,5.62-11.62,1.43-25.86-9.57-32.62-12.23-7.53-28.18-3.44-35.32,8.92-4.41,7.63-4.4,16.6-.77,23.96,2.92,5.93,2.89,12.88-.41,18.6l-.42.73c-3.26,5.65-9.21,9.11-15.72,9.51-8.81.54-17.15,5.65-21.36,14.35-5.62,11.62-1.43,25.86,9.57,32.62,12.23,7.53,28.18,3.44,35.32-8.92,4.41-7.63,4.4-16.6.77-23.96-2.92-5.93-2.89-12.88.41-18.6Z"/>
    <path class="st0" d="M126.99,126.01l-.42-.73c-3.26-5.65-3.28-12.53-.37-18.37,3.93-7.9,3.68-17.68-1.75-25.67-7.25-10.67-21.68-14.16-33.03-8.03-12.64,6.83-17.07,22.69-9.93,35.05,4.41,7.63,12.18,12.11,20.36,12.65,6.59.43,12.6,3.93,15.9,9.66l.42.73c3.26,5.65,3.28,12.53.37,18.37-3.93,7.9-3.68,17.68,1.75,25.67,7.25,10.67,21.68,14.16,33.03,8.03,12.64-6.83,17.07-22.69,9.93-35.05-4.41-7.63-12.18-12.11-20.36-12.65-6.59-.43-12.6-3.93-15.9-9.66Z"/>
    <path class="st0" d="M234.41,187.03l-.42-.73c-3.26-5.65-3.28-12.53-.37-18.37,3.93-7.9,3.68-17.68-1.75-25.67-7.25-10.67-21.68-14.16-33.03-8.03-12.64,6.83-17.07,22.69-9.93,35.05,4.41,7.63,12.18,12.11,20.36,12.65,6.59.43,12.6,3.93,15.9,9.66l.42.73c3.26,5.65,3.28,12.53.37,18.37-3.93,7.9-3.68,17.68,1.75,25.67,7.25,10.67,21.68,14.16,33.03,8.03,12.64-6.83,17.07-22.69,9.93-35.05-4.41-7.63-12.18-12.11-20.36-12.65-6.59-.43-12.6-3.93-15.9-9.66Z"/>
    <path class="st0" d="M162.72,62.79l-.42-.73c-3.26-5.65-3.28-12.53-.37-18.37,3.93-7.9,3.68-17.68-1.75-25.67-7.25-10.67-21.68-14.16-33.03-8.03-12.64,6.83-17.07,22.69-9.93,35.05,4.41,7.63,12.18,12.11,20.36,12.65,6.59.43,12.6,3.93,15.9,9.66l.42.73c3.26,5.65,3.28,12.53.37,18.37-3.93,7.9-3.68,17.68,1.75,25.67,7.25,10.67,21.68,14.16,33.03,8.03,12.64-6.83,17.07-22.69,9.93-35.05-4.41-7.63-12.18-12.11-20.36-12.65-6.59-.43-12.6-3.93-15.9-9.66Z"/>
    <path class="st0" d="M139.66,216.89h-.85c-6.53,0-12.49-3.42-16.09-8.86-4.87-7.36-13.47-12.03-23.11-11.32-12.87.94-23.11,11.69-23.47,24.59-.4,14.36,11.12,26.13,25.39,26.13,8.81,0,16.58-4.49,21.13-11.31,3.67-5.5,9.7-8.94,16.31-8.94h.85c6.53,0,12.49,3.42,16.09,8.86,4.87,7.36,13.47,12.03,23.11,11.32,12.87-.94,23.11-11.69,23.47-24.59.4-14.36-11.12-26.13-25.39-26.13-8.81,0-16.58,4.49-21.13,11.31-3.67,5.5-9.7,8.94-16.31,8.94Z"/>
  </g>
</svg>